<?xml version="1.0" encoding="utf-8"?>
<svg version="1.1" id="GFF" xmlns="http://www.w3.org/2000/svg" xmlns:xlink="http://www.w3.org/1999/xlink" x="0px" y="0px"
	 viewBox="0 0 70 29.5" style="enable-background:new 0 0 70 29.5;" xml:space="preserve">
<style type="text/css">
	.st0{fill:#2F8D46;}
</style>
<path id="main" class="st0" d="M59,13.6H34.6c0.6-5.3,5.5-9.2,10.8-8.5c2.5,0.3,4.7,1.5,6.3,3.4l3.6-3.6c-5.4-6.1-14.8-6.6-20.9-1.1
	c-2.8,2.5-4.6,6.1-4.9,9.9h-0.1C28.9,5.5,21.8-0.6,13.6,0C9.8,0.3,6.3,2,3.7,4.9l3.6,3.6c3.5-4.1,9.6-4.6,13.7-1.2
	c1.9,1.6,3.1,3.8,3.4,6.3H0c0,0.4,0,0.8,0,1.1c0,8.2,6.6,14.8,14.8,14.8c6.9,0,12.8-4.7,14.4-11.4H30c1.9,7.9,9.8,12.9,17.7,11
	c6.7-1.6,11.4-7.5,11.4-14.4C59.1,14.4,59.1,14,59,13.6z M14.8,24.5c-4.1,0-7.7-2.5-9.2-6.4h18.3C22.5,22,18.9,24.5,14.8,24.5z
	 M44.3,24.5c-4.1,0-7.7-2.5-9.2-6.4h18.3C52,22,48.4,24.5,44.3,24.5L44.3,24.5z"/>
<polygon id="plus" class="st0" points="70,7.2 65.6,7.2 65.6,2.8 62.6,2.8 62.6,7.2 58.2,7.2 58.2,10.2 62.6,10.2 62.6,14.6 
	65.6,14.6 65.6,10.2 70,10.2 "/>
</svg>
